<svg xmlns="http://www.w3.org/2000/svg" width="960" height="715" viewBox="0 0 960 715">
<rect width="960" height="715" fill="#ffffff"/>
<text x="480.0" y="30" text-anchor="middle" font-family="sans-serif" font-size="16" font-weight="bold" fill="#333333">OOF reliability (10 bins)</text>
<text x="480.0" y="50" text-anchor="middle" font-family="sans-serif" font-size="11" fill="#666666">Points: bins with n &gt; 0 (n = images in bin); dashed line: perfect calibration</text>
<rect x="70" y="70" width="230" height="230" fill="none" stroke="#999999"/>
<line x1="70" y1="300" x2="300" y2="70" stroke="#bbbbbb" stroke-dasharray="4 4"/>
<text x="185.0" y="62" text-anchor="middle" font-family="sans-serif" font-size="13" font-weight="bold" fill="#4A90E2">visual_raw</text>
<line x1="70.0" y1="300" x2="70.0" y2="304" stroke="#999999"/>
<text x="70.0" y="316" text-anchor="middle" font-family="sans-serif" font-size="10" fill="#555555">0.0</text>
<line x1="66" y1="300.0" x2="70" y2="300.0" stroke="#999999"/>
<text x="63" y="303.0" text-anchor="end" font-family="sans-serif" font-size="10" fill="#555555">0.0</text>
<line x1="116.0" y1="300" x2="116.0" y2="304" stroke="#999999"/>
<text x="116.0" y="316" text-anchor="middle" font-family="sans-serif" font-size="10" fill="#555555">0.2</text>
<line x1="66" y1="254.0" x2="70" y2="254.0" stroke="#999999"/>
<text x="63" y="257.0" text-anchor="end" font-family="sans-serif" font-size="10" fill="#555555">0.2</text>
<line x1="162.0" y1="300" x2="162.0" y2="304" stroke="#999999"/>
<text x="162.0" y="316" text-anchor="middle" font-family="sans-serif" font-size="10" fill="#555555">0.4</text>
<line x1="66" y1="208.0" x2="70" y2="208.0" stroke="#999999"/>
<text x="63" y="211.0" text-anchor="end" font-family="sans-serif" font-size="10" fill="#555555">0.4</text>
<line x1="208.0" y1="300" x2="208.0" y2="304" stroke="#999999"/>
<text x="208.0" y="316" text-anchor="middle" font-family="sans-serif" font-size="10" fill="#555555">0.6</text>
<line x1="66" y1="162.0" x2="70" y2="162.0" stroke="#999999"/>
<text x="63" y="165.0" text-anchor="end" font-family="sans-serif" font-size="10" fill="#555555">0.6</text>
<line x1="254.0" y1="300" x2="254.0" y2="304" stroke="#999999"/>
<text x="254.0" y="316" text-anchor="middle" font-family="sans-serif" font-size="10" fill="#555555">0.8</text>
<line x1="66" y1="116.0" x2="70" y2="116.0" stroke="#999999"/>
<text x="63" y="119.0" text-anchor="end" font-family="sans-serif" font-size="10" fill="#555555">0.8</text>
<line x1="300.0" y1="300" x2="300.0" y2="304" stroke="#999999"/>
<text x="300.0" y="316" text-anchor="middle" font-family="sans-serif" font-size="10" fill="#555555">1.0</text>
<line x1="66" y1="70.0" x2="70" y2="70.0" stroke="#999999"/>
<text x="63" y="73.0" text-anchor="end" font-family="sans-serif" font-size="10" fill="#555555">1.0</text>
<text x="185.0" y="334" text-anchor="middle" font-family="sans-serif" font-size="11" fill="#333333">Mean predicted P(ai_edited) in bin</text>
<text x="30" y="185.0" text-anchor="middle" font-family="sans-serif" font-size="11" fill="#333333" transform="rotate(-90 30 185.0)">Observed fraction ai_edited</text>
<polyline fill="none" stroke="#4A90E2" stroke-width="2" points="104.1,185.0 128.8,242.5 153.6,205.5 176.2,200.0 194.1,169.9 215.9,152.1 238.3,127.5 263.5,168.6 279.9,185.0"/>
<circle cx="104.1" cy="185.0" r="3" fill="#4A90E2"/>
<text x="109.1" y="179.0" font-family="sans-serif" font-size="9" fill="#333333">n=4</text>
<circle cx="128.8" cy="242.5" r="3" fill="#4A90E2"/>
<text x="133.8" y="255.5" font-family="sans-serif" font-size="9" fill="#333333">n=12</text>
<circle cx="153.6" cy="205.5" r="3" fill="#4A90E2"/>
<text x="158.6" y="199.5" font-family="sans-serif" font-size="9" fill="#333333">n=56</text>
<circle cx="176.2" cy="200.0" r="3" fill="#4A90E2"/>
<text x="181.2" y="213.0" font-family="sans-serif" font-size="9" fill="#333333">n=292</text>
<circle cx="194.1" cy="169.9" r="3" fill="#4A90E2"/>
<text x="199.1" y="163.9" font-family="sans-serif" font-size="9" fill="#333333">n=251</text>
<circle cx="215.9" cy="152.1" r="3" fill="#4A90E2"/>
<text x="220.9" y="165.1" font-family="sans-serif" font-size="9" fill="#333333">n=42</text>
<circle cx="238.3" cy="127.5" r="3" fill="#4A90E2"/>
<text x="243.3" y="121.5" font-family="sans-serif" font-size="9" fill="#333333">n=16</text>
<circle cx="263.5" cy="168.6" r="3" fill="#4A90E2"/>
<text x="268.5" y="181.6" font-family="sans-serif" font-size="9" fill="#333333">n=7</text>
<circle cx="279.9" cy="185.0" r="3" fill="#4A90E2"/>
<text x="284.9" y="179.0" font-family="sans-serif" font-size="9" fill="#333333">n=2</text>
<rect x="385" y="70" width="230" height="230" fill="none" stroke="#999999"/>
<line x1="385" y1="300" x2="615" y2="70" stroke="#bbbbbb" stroke-dasharray="4 4"/>
<text x="500.0" y="62" text-anchor="middle" font-family="sans-serif" font-size="13" font-weight="bold" fill="#F5A623">visual_calibrated</text>
<line x1="385.0" y1="300" x2="385.0" y2="304" stroke="#999999"/>
<text x="385.0" y="316" text-anchor="middle" font-family="sans-serif" font-size="10" fill="#555555">0.0</text>
<line x1="381" y1="300.0" x2="385" y2="300.0" stroke="#999999"/>
<text x="378" y="303.0" text-anchor="end" font-family="sans-serif" font-size="10" fill="#555555">0.0</text>
<line x1="431.0" y1="300" x2="431.0" y2="304" stroke="#999999"/>
<text x="431.0" y="316" text-anchor="middle" font-family="sans-serif" font-size="10" fill="#555555">0.2</text>
<line x1="381" y1="254.0" x2="385" y2="254.0" stroke="#999999"/>
<text x="378" y="257.0" text-anchor="end" font-family="sans-serif" font-size="10" fill="#555555">0.2</text>
<line x1="477.0" y1="300" x2="477.0" y2="304" stroke="#999999"/>
<text x="477.0" y="316" text-anchor="middle" font-family="sans-serif" font-size="10" fill="#555555">0.4</text>
<line x1="381" y1="208.0" x2="385" y2="208.0" stroke="#999999"/>
<text x="378" y="211.0" text-anchor="end" font-family="sans-serif" font-size="10" fill="#555555">0.4</text>
<line x1="523.0" y1="300" x2="523.0" y2="304" stroke="#999999"/>
<text x="523.0" y="316" text-anchor="middle" font-family="sans-serif" font-size="10" fill="#555555">0.6</text>
<line x1="381" y1="162.0" x2="385" y2="162.0" stroke="#999999"/>
<text x="378" y="165.0" text-anchor="end" font-family="sans-serif" font-size="10" fill="#555555">0.6</text>
<line x1="569.0" y1="300" x2="569.0" y2="304" stroke="#999999"/>
<text x="569.0" y="316" text-anchor="middle" font-family="sans-serif" font-size="10" fill="#555555">0.8</text>
<line x1="381" y1="116.0" x2="385" y2="116.0" stroke="#999999"/>
<text x="378" y="119.0" text-anchor="end" font-family="sans-serif" font-size="10" fill="#555555">0.8</text>
<line x1="615.0" y1="300" x2="615.0" y2="304" stroke="#999999"/>
<text x="615.0" y="316" text-anchor="middle" font-family="sans-serif" font-size="10" fill="#555555">1.0</text>
<line x1="381" y1="70.0" x2="385" y2="70.0" stroke="#999999"/>
<text x="378" y="73.0" text-anchor="end" font-family="sans-serif" font-size="10" fill="#555555">1.0</text>
<text x="500.0" y="334" text-anchor="middle" font-family="sans-serif" font-size="11" fill="#333333">Mean predicted P(ai_edited) in bin</text>
<text x="345" y="185.0" text-anchor="middle" font-family="sans-serif" font-size="11" fill="#333333" transform="rotate(-90 345 185.0)">Observed fraction ai_edited</text>
<polyline fill="none" stroke="#F5A623" stroke-width="2" points="424.4,300.0 446.1,218.8 469.3,216.9 489.7,195.9 510.5,172.6 532.1,156.6 554.9,137.6 582.1,127.5"/>
<circle cx="424.4" cy="300.0" r="3" fill="#F5A623"/>
<text x="429.4" y="294.0" font-family="sans-serif" font-size="9" fill="#333333">n=1</text>
<circle cx="446.1" cy="218.8" r="3" fill="#F5A623"/>
<text x="451.1" y="231.8" font-family="sans-serif" font-size="9" fill="#333333">n=17</text>
<circle cx="469.3" cy="216.9" r="3" fill="#F5A623"/>
<text x="474.3" y="210.9" font-family="sans-serif" font-size="9" fill="#333333">n=83</text>
<circle cx="489.7" cy="195.9" r="3" fill="#F5A623"/>
<text x="494.7" y="208.9" font-family="sans-serif" font-size="9" fill="#333333">n=263</text>
<circle cx="510.5" cy="172.6" r="3" fill="#F5A623"/>
<text x="515.5" y="166.6" font-family="sans-serif" font-size="9" fill="#333333">n=204</text>
<circle cx="532.1" cy="156.6" r="3" fill="#F5A623"/>
<text x="537.1" y="169.6" font-family="sans-serif" font-size="9" fill="#333333">n=93</text>
<circle cx="554.9" cy="137.6" r="3" fill="#F5A623"/>
<text x="559.9" y="131.6" font-family="sans-serif" font-size="9" fill="#333333">n=17</text>
<circle cx="582.1" cy="127.5" r="3" fill="#F5A623"/>
<text x="587.1" y="140.5" font-family="sans-serif" font-size="9" fill="#333333">n=4</text>
<rect x="700" y="70" width="230" height="230" fill="none" stroke="#999999"/>
<line x1="700" y1="300" x2="930" y2="70" stroke="#bbbbbb" stroke-dasharray="4 4"/>
<text x="815.0" y="62" text-anchor="middle" font-family="sans-serif" font-size="13" font-weight="bold" fill="#2E8B57">dsp_calibrated</text>
<line x1="700.0" y1="300" x2="700.0" y2="304" stroke="#999999"/>
<text x="700.0" y="316" text-anchor="middle" font-family="sans-serif" font-size="10" fill="#555555">0.0</text>
<line x1="696" y1="300.0" x2="700" y2="300.0" stroke="#999999"/>
<text x="693" y="303.0" text-anchor="end" font-family="sans-serif" font-size="10" fill="#555555">0.0</text>
<line x1="746.0" y1="300" x2="746.0" y2="304" stroke="#999999"/>
<text x="746.0" y="316" text-anchor="middle" font-family="sans-serif" font-size="10" fill="#555555">0.2</text>
<line x1="696" y1="254.0" x2="700" y2="254.0" stroke="#999999"/>
<text x="693" y="257.0" text-anchor="end" font-family="sans-serif" font-size="10" fill="#555555">0.2</text>
<line x1="792.0" y1="300" x2="792.0" y2="304" stroke="#999999"/>
<text x="792.0" y="316" text-anchor="middle" font-family="sans-serif" font-size="10" fill="#555555">0.4</text>
<line x1="696" y1="208.0" x2="700" y2="208.0" stroke="#999999"/>
<text x="693" y="211.0" text-anchor="end" font-family="sans-serif" font-size="10" fill="#555555">0.4</text>
<line x1="838.0" y1="300" x2="838.0" y2="304" stroke="#999999"/>
<text x="838.0" y="316" text-anchor="middle" font-family="sans-serif" font-size="10" fill="#555555">0.6</text>
<line x1="696" y1="162.0" x2="700" y2="162.0" stroke="#999999"/>
<text x="693" y="165.0" text-anchor="end" font-family="sans-serif" font-size="10" fill="#555555">0.6</text>
<line x1="884.0" y1="300" x2="884.0" y2="304" stroke="#999999"/>
<text x="884.0" y="316" text-anchor="middle" font-family="sans-serif" font-size="10" fill="#555555">0.8</text>
<line x1="696" y1="116.0" x2="700" y2="116.0" stroke="#999999"/>
<text x="693" y="119.0" text-anchor="end" font-family="sans-serif" font-size="10" fill="#555555">0.8</text>
<line x1="930.0" y1="300" x2="930.0" y2="304" stroke="#999999"/>
<text x="930.0" y="316" text-anchor="middle" font-family="sans-serif" font-size="10" fill="#555555">1.0</text>
<line x1="696" y1="70.0" x2="700" y2="70.0" stroke="#999999"/>
<text x="693" y="73.0" text-anchor="end" font-family="sans-serif" font-size="10" fill="#555555">1.0</text>
<text x="815.0" y="334" text-anchor="middle" font-family="sans-serif" font-size="11" fill="#333333">Mean predicted P(ai_edited) in bin</text>
<text x="660" y="185.0" text-anchor="middle" font-family="sans-serif" font-size="11" fill="#333333" transform="rotate(-90 660 185.0)">Observed fraction ai_edited</text>
<polyline fill="none" stroke="#2E8B57" stroke-width="2" points="738.1,300.0 760.1,172.2 782.1,181.5 807.0,206.1 822.8,170.5 846.6,158.5 869.4,185.0"/>
<circle cx="738.1" cy="300.0" r="3" fill="#2E8B57"/>
<text x="743.1" y="294.0" font-family="sans-serif" font-size="9" fill="#333333">n=2</text>
<circle cx="760.1" cy="172.2" r="3" fill="#2E8B57"/>
<text x="765.1" y="185.2" font-family="sans-serif" font-size="9" fill="#333333">n=9</text>
<circle cx="782.1" cy="181.5" r="3" fill="#2E8B57"/>
<text x="787.1" y="175.5" font-family="sans-serif" font-size="9" fill="#333333">n=33</text>
<circle cx="807.0" cy="206.1" r="3" fill="#2E8B57"/>
<text x="812.0" y="219.1" font-family="sans-serif" font-size="9" fill="#333333">n=272</text>
<circle cx="822.8" cy="170.5" r="3" fill="#2E8B57"/>
<text x="827.8" y="164.5" font-family="sans-serif" font-size="9" fill="#333333">n=325</text>
<circle cx="846.6" cy="158.5" r="3" fill="#2E8B57"/>
<text x="851.6" y="171.5" font-family="sans-serif" font-size="9" fill="#333333">n=39</text>
<circle cx="869.4" cy="185.0" r="3" fill="#2E8B57"/>
<text x="874.4" y="179.0" font-family="sans-serif" font-size="9" fill="#333333">n=2</text>
<rect x="70" y="395" width="230" height="230" fill="none" stroke="#999999"/>
<line x1="70" y1="625" x2="300" y2="395" stroke="#bbbbbb" stroke-dasharray="4 4"/>
<text x="185.0" y="387" text-anchor="middle" font-family="sans-serif" font-size="13" font-weight="bold" fill="#D0021B">late_fusion_stacked</text>
<line x1="70.0" y1="625" x2="70.0" y2="629" stroke="#999999"/>
<text x="70.0" y="641" text-anchor="middle" font-family="sans-serif" font-size="10" fill="#555555">0.0</text>
<line x1="66" y1="625.0" x2="70" y2="625.0" stroke="#999999"/>
<text x="63" y="628.0" text-anchor="end" font-family="sans-serif" font-size="10" fill="#555555">0.0</text>
<line x1="116.0" y1="625" x2="116.0" y2="629" stroke="#999999"/>
<text x="116.0" y="641" text-anchor="middle" font-family="sans-serif" font-size="10" fill="#555555">0.2</text>
<line x1="66" y1="579.0" x2="70" y2="579.0" stroke="#999999"/>
<text x="63" y="582.0" text-anchor="end" font-family="sans-serif" font-size="10" fill="#555555">0.2</text>
<line x1="162.0" y1="625" x2="162.0" y2="629" stroke="#999999"/>
<text x="162.0" y="641" text-anchor="middle" font-family="sans-serif" font-size="10" fill="#555555">0.4</text>
<line x1="66" y1="533.0" x2="70" y2="533.0" stroke="#999999"/>
<text x="63" y="536.0" text-anchor="end" font-family="sans-serif" font-size="10" fill="#555555">0.4</text>
<line x1="208.0" y1="625" x2="208.0" y2="629" stroke="#999999"/>
<text x="208.0" y="641" text-anchor="middle" font-family="sans-serif" font-size="10" fill="#555555">0.6</text>
<line x1="66" y1="487.0" x2="70" y2="487.0" stroke="#999999"/>
<text x="63" y="490.0" text-anchor="end" font-family="sans-serif" font-size="10" fill="#555555">0.6</text>
<line x1="254.0" y1="625" x2="254.0" y2="629" stroke="#999999"/>
<text x="254.0" y="641" text-anchor="middle" font-family="sans-serif" font-size="10" fill="#555555">0.8</text>
<line x1="66" y1="441.0" x2="70" y2="441.0" stroke="#999999"/>
<text x="63" y="444.0" text-anchor="end" font-family="sans-serif" font-size="10" fill="#555555">0.8</text>
<line x1="300.0" y1="625" x2="300.0" y2="629" stroke="#999999"/>
<text x="300.0" y="641" text-anchor="middle" font-family="sans-serif" font-size="10" fill="#555555">1.0</text>
<line x1="66" y1="395.0" x2="70" y2="395.0" stroke="#999999"/>
<text x="63" y="398.0" text-anchor="end" font-family="sans-serif" font-size="10" fill="#555555">1.0</text>
<text x="185.0" y="659" text-anchor="middle" font-family="sans-serif" font-size="11" fill="#333333">Mean predicted P(ai_edited) in bin</text>
<text x="30" y="510.0" text-anchor="middle" font-family="sans-serif" font-size="11" fill="#333333" transform="rotate(-90 30 510.0)">Observed fraction ai_edited</text>
<polyline fill="none" stroke="#D0021B" stroke-width="2" points="110.9,625.0 130.4,535.6 153.0,535.6 174.5,530.5 195.8,491.6 217.9,485.3 240.4,435.0 263.5,510.0"/>
<circle cx="110.9" cy="625.0" r="3" fill="#D0021B"/>
<text x="115.9" y="619.0" font-family="sans-serif" font-size="9" fill="#333333">n=3</text>
<circle cx="130.4" cy="535.6" r="3" fill="#D0021B"/>
<text x="135.4" y="548.6" font-family="sans-serif" font-size="9" fill="#333333">n=18</text>
<circle cx="153.0" cy="535.6" r="3" fill="#D0021B"/>
<text x="158.0" y="529.6" font-family="sans-serif" font-size="9" fill="#333333">n=108</text>
<circle cx="174.5" cy="530.5" r="3" fill="#D0021B"/>
<text x="179.5" y="543.5" font-family="sans-serif" font-size="9" fill="#333333">n=219</text>
<circle cx="195.8" cy="491.6" r="3" fill="#D0021B"/>
<text x="200.8" y="485.6" font-family="sans-serif" font-size="9" fill="#333333">n=200</text>
<circle cx="217.9" cy="485.3" r="3" fill="#D0021B"/>
<text x="222.9" y="498.3" font-family="sans-serif" font-size="9" fill="#333333">n=107</text>
<circle cx="240.4" cy="435.0" r="3" fill="#D0021B"/>
<text x="245.4" y="429.0" font-family="sans-serif" font-size="9" fill="#333333">n=23</text>
<circle cx="263.5" cy="510.0" r="3" fill="#D0021B"/>
<text x="268.5" y="523.0" font-family="sans-serif" font-size="9" fill="#333333">n=4</text>
<rect x="385" y="395" width="230" height="230" fill="none" stroke="#999999"/>
<line x1="385" y1="625" x2="615" y2="395" stroke="#bbbbbb" stroke-dasharray="4 4"/>
<text x="500.0" y="387" text-anchor="middle" font-family="sans-serif" font-size="13" font-weight="bold" fill="#9013FE">early_fusion</text>
<line x1="385.0" y1="625" x2="385.0" y2="629" stroke="#999999"/>
<text x="385.0" y="641" text-anchor="middle" font-family="sans-serif" font-size="10" fill="#555555">0.0</text>
<line x1="381" y1="625.0" x2="385" y2="625.0" stroke="#999999"/>
<text x="378" y="628.0" text-anchor="end" font-family="sans-serif" font-size="10" fill="#555555">0.0</text>
<line x1="431.0" y1="625" x2="431.0" y2="629" stroke="#999999"/>
<text x="431.0" y="641" text-anchor="middle" font-family="sans-serif" font-size="10" fill="#555555">0.2</text>
<line x1="381" y1="579.0" x2="385" y2="579.0" stroke="#999999"/>
<text x="378" y="582.0" text-anchor="end" font-family="sans-serif" font-size="10" fill="#555555">0.2</text>
<line x1="477.0" y1="625" x2="477.0" y2="629" stroke="#999999"/>
<text x="477.0" y="641" text-anchor="middle" font-family="sans-serif" font-size="10" fill="#555555">0.4</text>
<line x1="381" y1="533.0" x2="385" y2="533.0" stroke="#999999"/>
<text x="378" y="536.0" text-anchor="end" font-family="sans-serif" font-size="10" fill="#555555">0.4</text>
<line x1="523.0" y1="625" x2="523.0" y2="629" stroke="#999999"/>
<text x="523.0" y="641" text-anchor="middle" font-family="sans-serif" font-size="10" fill="#555555">0.6</text>
<line x1="381" y1="487.0" x2="385" y2="487.0" stroke="#999999"/>
<text x="378" y="490.0" text-anchor="end" font-family="sans-serif" font-size="10" fill="#555555">0.6</text>
<line x1="569.0" y1="625" x2="569.0" y2="629" stroke="#999999"/>
<text x="569.0" y="641" text-anchor="middle" font-family="sans-serif" font-size="10" fill="#555555">0.8</text>
<line x1="381" y1="441.0" x2="385" y2="441.0" stroke="#999999"/>
<text x="378" y="444.0" text-anchor="end" font-family="sans-serif" font-size="10" fill="#555555">0.8</text>
<line x1="615.0" y1="625" x2="615.0" y2="629" stroke="#999999"/>
<text x="615.0" y="641" text-anchor="middle" font-family="sans-serif" font-size="10" fill="#555555">1.0</text>
<line x1="381" y1="395.0" x2="385" y2="395.0" stroke="#999999"/>
<text x="378" y="398.0" text-anchor="end" font-family="sans-serif" font-size="10" fill="#555555">1.0</text>
<text x="500.0" y="659" text-anchor="middle" font-family="sans-serif" font-size="11" fill="#333333">Mean predicted P(ai_edited) in bin</text>
<text x="345" y="510.0" text-anchor="middle" font-family="sans-serif" font-size="11" fill="#333333" transform="rotate(-90 345 510.0)">Observed fraction ai_edited</text>
<polyline fill="none" stroke="#9013FE" stroke-width="2" points="400.4,583.2 419.4,506.0 443.6,535.8 468.6,516.4 489.9,531.8 510.3,494.9 531.8,493.6 557.9,456.9 581.4,466.9 602.4,510.0"/>
<circle cx="400.4" cy="583.2" r="3" fill="#9013FE"/>
<text x="405.4" y="577.2" font-family="sans-serif" font-size="9" fill="#333333">n=11</text>
<circle cx="419.4" cy="506.0" r="3" fill="#9013FE"/>
<text x="424.4" y="519.0" font-family="sans-serif" font-size="9" fill="#333333">n=29</text>
<circle cx="443.6" cy="535.8" r="3" fill="#9013FE"/>
<text x="448.6" y="529.8" font-family="sans-serif" font-size="9" fill="#333333">n=49</text>
<circle cx="468.6" cy="516.4" r="3" fill="#9013FE"/>
<text x="473.6" y="529.4" font-family="sans-serif" font-size="9" fill="#333333">n=72</text>
<circle cx="489.9" cy="531.8" r="3" fill="#9013FE"/>
<text x="494.9" y="525.8" font-family="sans-serif" font-size="9" fill="#333333">n=190</text>
<circle cx="510.3" cy="494.9" r="3" fill="#9013FE"/>
<text x="515.3" y="507.9" font-family="sans-serif" font-size="9" fill="#333333">n=191</text>
<circle cx="531.8" cy="493.6" r="3" fill="#9013FE"/>
<text x="536.8" y="487.6" font-family="sans-serif" font-size="9" fill="#333333">n=56</text>
<circle cx="557.9" cy="456.9" r="3" fill="#9013FE"/>
<text x="562.9" y="469.9" font-family="sans-serif" font-size="9" fill="#333333">n=26</text>
<circle cx="581.4" cy="466.9" r="3" fill="#9013FE"/>
<text x="586.4" y="460.9" font-family="sans-serif" font-size="9" fill="#333333">n=32</text>
<circle cx="602.4" cy="510.0" r="3" fill="#9013FE"/>
<text x="607.4" y="523.0" font-family="sans-serif" font-size="9" fill="#333333">n=26</text>
</svg>
